<svg width="47" height="46" viewBox="0 0 47 46" fill="none" xmlns="http://www.w3.org/2000/svg">
<g id="Page 1">
<g id="010   Meal Time">
<path id="Shape" d="M24 46C28.1791 46.0037 32.2797 44.8654 35.8588 42.7079C36.2213 42.4888 36.3375 42.0174 36.1184 41.6549C35.8992 41.2925 35.4278 41.1763 35.0653 41.3954C28.0758 45.5906 19.3131 45.4648 12.4469 41.0707C5.58062 36.6766 1.79574 28.7725 2.67721 20.6684C3.55868 12.5643 8.95438 5.65872 16.6048 2.84356C17.0024 2.69769 17.2064 2.25713 17.0606 1.85954C16.9147 1.46195 16.4741 1.25789 16.0765 1.40376C5.60264 5.24106 -0.607961 16.0407 1.34336 27.0234C3.29468 38.0062 12.8453 46.0055 24 46Z" fill="#B79C10"/>
<path id="Shape_2" d="M31.3953 2.84356C37.451 5.06851 42.1859 9.89765 44.2911 15.996C46.3962 22.0944 45.6487 28.8161 42.2551 34.303C42.1108 34.5358 42.1016 34.8279 42.2311 35.0693C42.3605 35.3108 42.6089 35.4648 42.8827 35.4734C43.1565 35.482 43.4141 35.3438 43.5585 35.111C47.1954 29.2324 47.9969 22.0302 45.7414 15.4958C43.4859 8.96147 38.4123 3.78722 31.9235 1.40376C31.526 1.25789 31.0854 1.46195 30.9395 1.85954C30.7937 2.25713 30.9977 2.69769 31.3953 2.84356Z" fill="#B79C10"/>
<path id="Shape_3" d="M20.9334 14.2447V20.7238C20.1201 21.7991 19.9375 23.2248 20.4534 24.4704C20.9693 25.716 22.1065 26.595 23.4419 26.7804L29.4165 32.7551L29.4211 32.762L40.2634 43.6003C40.5509 43.888 40.941 44.0497 41.3478 44.0497C41.7546 44.0497 42.1447 43.888 42.4323 43.6003C44.8335 41.1984 43.4144 38.0803 37.0112 31.6741L33.7582 28.4211H33.7528L27.7766 22.4411C27.6858 21.8187 27.4419 21.2286 27.0667 20.7238V14.2431C28.4645 13.6363 29.3683 12.2572 29.3667 10.7333V2.29998C29.371 1.68946 29.1266 1.10348 28.6897 0.67695C28.6534 0.637742 28.6139 0.601586 28.5717 0.568849C27.7006 -0.200342 26.3892 -0.187437 25.5334 0.59875C25.1095 0.207264 24.5517 -0.00700051 23.9747 -1.76404e-05C23.4153 0.0122155 22.8787 0.22435 22.4621 0.597983C21.6141 -0.182178 20.3155 -0.20099 19.4453 0.554283C18.9286 0.986592 18.6311 1.62634 18.6334 2.29998V10.7333C18.6312 12.2577 19.535 13.6377 20.9334 14.2447ZM29.9647 31.1267L25.3946 26.5573C26.3866 26.1677 27.1716 25.3827 27.5612 24.3907L32.1267 28.9647L29.9647 31.1267ZM25.5334 19.4917C24.5571 19.0583 23.443 19.0583 22.4667 19.4917V14.5667H25.5334V19.4917ZM21.7 23C21.7 21.7297 22.7298 20.7 24 20.7C25.2703 20.7 26.3 21.7297 26.3 23C26.3 24.2703 25.2703 25.3 24 25.3C22.7298 25.3 21.7 24.2703 21.7 23ZM41.3474 42.5163L31.048 32.2161L33.2162 30.048L35.9271 32.7581C43.5163 40.3474 42.1593 41.7067 41.3474 42.5163ZM20.1667 2.29998C20.1687 2.07372 20.2706 1.85991 20.445 1.71578C20.7494 1.45635 21.2032 1.47921 21.48 1.76792C21.6222 1.90829 21.7016 2.10019 21.7 2.29998V8.43332C21.7 8.85674 22.0433 9.19999 22.4667 9.19999C22.8901 9.19999 23.2334 8.85674 23.2334 8.43332V2.29998C23.2393 1.89969 23.5468 1.56863 23.9456 1.53332H24.0721C24.4653 1.57437 24.7645 1.9047 24.7667 2.29998V8.43332C24.7667 8.85674 25.11 9.19999 25.5334 9.19999C25.9568 9.19999 26.3 8.85674 26.3 8.43332V2.29998C26.3 1.87657 26.6433 1.53332 27.0667 1.53332C27.4901 1.53332 27.8334 1.87657 27.8334 2.29998V10.7333C27.8339 11.788 27.1157 12.7073 26.0923 12.962C25.9102 13.0118 25.7221 13.0358 25.5334 13.0333H22.4667C22.2714 13.035 22.0768 13.0092 21.8886 12.9567C20.8736 12.6967 20.1645 11.7811 20.1667 10.7333V2.29998Z" fill="#B79C10"/>
<path id="Shape_4" d="M17.0303 5.96003C16.854 5.57526 16.3993 5.40608 16.0144 5.58207C15.4877 5.8228 14.981 6.09343 14.4811 6.37787C14.4589 6.3886 14.4351 6.3886 14.4136 6.40087C14.3922 6.41313 14.3745 6.4392 14.3515 6.4553C11.5043 8.12006 9.13476 10.4914 7.47221 13.34C7.44683 13.3637 7.42325 13.3894 7.40168 13.4166C7.38929 13.4458 7.37904 13.4757 7.37101 13.5063C3.98194 19.3996 3.98779 26.6518 7.38635 32.5396C7.39401 32.5534 7.39325 32.5695 7.40168 32.5833C7.41011 32.5971 7.42928 32.6178 7.44231 32.6362C9.11964 35.5059 11.5099 37.8935 14.3814 39.5677C14.3945 39.5769 14.4021 39.5907 14.4167 39.5991C14.4384 39.6094 14.4607 39.6186 14.4834 39.6267C20.1969 42.908 27.1973 43.0166 33.0099 39.9142C33.2588 39.7891 33.4202 39.5389 33.4316 39.2605C33.443 38.9822 33.3026 38.7196 33.0647 38.5746C32.8269 38.4296 32.5291 38.425 32.2869 38.5626C29.9647 39.7983 27.3949 40.4978 24.7667 40.6096V39.1C24.7667 38.6766 24.4234 38.3333 24 38.3333C23.5766 38.3333 23.2334 38.6766 23.2334 39.1V40.6142C20.6594 40.5048 18.1413 39.8286 15.8588 38.6339L16.614 37.3267C16.7531 37.0894 16.7544 36.7957 16.6174 36.5571C16.4803 36.3185 16.226 36.1717 15.9509 36.1723C15.6758 36.1729 15.4221 36.3209 15.2861 36.56L14.5325 37.8634C12.3636 36.4765 10.522 34.6349 9.13512 32.466L10.4384 31.7124C10.6776 31.5764 10.8256 31.3227 10.8262 31.0476C10.8268 30.7725 10.6799 30.5181 10.4414 30.3811C10.2028 30.2441 9.90912 30.2454 9.67178 30.3845L8.36845 31.1397C7.1731 28.8578 6.49613 26.3403 6.38585 23.7666H7.90001C8.32343 23.7666 8.66668 23.4234 8.66668 23C8.66668 22.5766 8.32343 22.2333 7.90001 22.2333H6.39505C6.50747 19.6615 7.1835 17.1458 8.37535 14.8641L9.67332 15.6139C9.91065 15.753 10.2043 15.7543 10.4429 15.6173C10.6815 15.4803 10.8283 15.2259 10.8277 14.9508C10.8271 14.6757 10.6791 14.422 10.44 14.286L9.13665 13.5332C10.5198 11.3617 12.3612 9.51904 14.5317 8.1343L15.2861 9.43764C15.4221 9.6768 15.6758 9.82477 15.9509 9.82537C16.226 9.82598 16.4803 9.67913 16.6174 9.44056C16.7544 9.202 16.7531 8.90831 16.614 8.67097L15.8634 7.36763C16.1241 7.23193 16.3832 7.09394 16.6523 6.9705C17.034 6.7943 17.2027 6.34352 17.0303 5.96003Z" fill="#B79C10"/>
<path id="Shape_5" d="M39.8586 32.338C40.0375 32.4346 40.2475 32.4561 40.4423 32.3979C40.6371 32.3397 40.8008 32.2064 40.8974 32.0275C44.016 26.2226 43.9145 19.2185 40.6291 13.5064C40.621 13.4758 40.6108 13.4458 40.5984 13.4167C40.5771 13.3894 40.5538 13.3638 40.5286 13.34C38.8649 10.4911 36.4941 8.1197 33.6455 6.45532C33.6225 6.43922 33.6079 6.41545 33.5834 6.40089C33.5613 6.39233 33.5388 6.38491 33.5159 6.37865C33.0191 6.09345 32.5124 5.82282 31.9826 5.58209C31.6013 5.42554 31.1644 5.59853 30.9937 5.97369C30.8229 6.34885 30.9793 6.7919 31.3478 6.97665C31.6169 7.10009 31.876 7.23809 32.1367 7.37379L31.3861 8.67712C31.247 8.91446 31.2457 9.20815 31.3827 9.44671C31.5198 9.68528 31.7741 9.83213 32.0492 9.83152C32.3243 9.83092 32.578 9.68295 32.714 9.44379L33.4684 8.14045C35.6389 9.52519 37.4803 11.3679 38.8634 13.5393L37.5601 14.2922C37.321 14.4282 37.173 14.6819 37.1724 14.957C37.1718 15.2321 37.3186 15.4864 37.5572 15.6235C37.7957 15.7605 38.0894 15.7592 38.3268 15.6201L39.6247 14.8703C40.8157 17.1501 41.4917 19.6636 41.6051 22.2333H40.1001C39.6767 22.2333 39.3334 22.5766 39.3334 23C39.3334 23.4234 39.6767 23.7667 40.1001 23.7667H41.6097C41.4995 26.4009 40.7947 28.976 39.5481 31.2992C39.4515 31.4781 39.4299 31.6881 39.4882 31.8829C39.5464 32.0777 39.6796 32.2414 39.8586 32.338Z" fill="#B79C10"/>
</g>
</g>
</svg>
